<?xml version="1.0" ?><!DOCTYPE svg  PUBLIC '-//W3C//DTD SVG 1.1//EN'  'http://www.w3.org/Graphics/SVG/1.1/DTD/svg11.dtd'><svg height="32px" id="Layer_1" style="enable-background:new 0 0 32 32;" version="1.1" viewBox="0 0 32 32" width="32px" xml:space="preserve" xmlns="http://www.w3.org/2000/svg" xmlns:xlink="http://www.w3.org/1999/xlink"><path d="M24,18h-2v-4h2c3.313,0,6-2.687,6-6s-2.687-6-6-6s-6,2.687-6,6v2h-4V8c0-3.313-2.687-6-6-6S2,4.687,2,8s2.687,6,6,6h2v4H8  c-3.313,0-6,2.687-6,6s2.687,6,6,6s6-2.687,6-6v-2h4v2c0,3.313,2.687,6,6,6s6-2.687,6-6S27.313,18,24,18z M24,6c1.104,0,2,0.896,2,2  s-0.896,2-2,2h-2V8C22,6.896,22.896,6,24,6z M6,8c0-1.104,0.896-2,2-2s2,0.896,2,2v2H8C6.896,10,6,9.104,6,8z M8,26  c-1.104,0-2-0.896-2-2s0.896-2,2-2h2v2C10,25.104,9.104,26,8,26z M14,18v-4h4v4H14z M24,26c-1.104,0-2-0.896-2-2v-2h2  c1.104,0,2,0.896,2,2S25.104,26,24,26z"/></svg>